PathFileType	4	(X/Y/Z)	/Users/mathieubourgeois/Desktop/Analyse/Traitement/Sujet_03/Data/Transformed_Sujet_03_velo_100.trc
DataRate	CameraRate	NumFrames	NumMarkers	Units	OrigDataRate	OrigDataStartFrame	OrigNumFrames
120.000000	120.000000	4	36	mm	120.000000	1417	1890
Frame#	Time	RFHD			LFHD			RBHD			LBHD			C7			CLAV			RSHO			LSHO			STRN			T10			RBWT			LBWT			RFWT			LFWT			RKNI			LKNI			RKNE			LKNE			LANI			RANI			LANE			RANE			LTOE			RTOE			LHEE			RHEE			RHUM			LHUM			RRAD			LRAD			RWRA			RWRB			LWRA			LWRB			LCAR			RCAR			
		X1	Y1	Z1	X2	Y2	Z2	X3	Y3	Z3	X4	Y4	Z4	X5	Y5	Z5	X6	Y6	Z6	X7	Y7	Z7	X8	Y8	Z8	X9	Y9	Z9	X10	Y10	Z10	X11	Y11	Z11	X12	Y12	Z12	X13	Y13	Z13	X14	Y14	Z14	X15	Y15	Z15	X16	Y16	Z16	X17	Y17	Z17	X18	Y18	Z18	X19	Y19	Z19	X20	Y20	Z20	X21	Y21	Z21	X22	Y22	Z22	X23	Y23	Z23	X24	Y24	Z24	X25	Y25	Z25	X26	Y26	Z26	X27	Y27	Z27	X28	Y28	Z28	X29	Y29	Z29	X30	Y30	Z30	X31	Y31	Z31	X32	Y32	Z32	X33	Y33	Z33	X34	Y34	Z34	X35	Y35	Z35	X36	Y36	Z36	

1418	11.80833333333333	143.3525238037109	1550.337646484375	109.0284118652343	131.2362976074219	1549.673950195312	-44.19811630249031	36.53334426879881	1627.777099609375	120.5674209594726	16.10314178466797	1643.75146484375	-26.66786766052256	-112.6767883300781	1549.83544921875	40.28429412841786	-73.09559631347656	1392.454711914062	37.42362213134756	-55.88662338256839	1489.219604492188	205.3727722167968	-72.23020935058592	1511.36572265625	-141.4153137207032	-175.4120788574219	1256.872680664062	31.7125415802001	-329.8833618164062	1453.925903320312	34.66714477539049	-532.95947265625	1269.276000976562	108.5338592529295	-538.3150024414062	1266.612915039062	-14.08543872833266	-382.0409240722656	1197.224609375	170.1813049316405	-391.0094909667969	1185.00732421875	-77.27395629882824	-104.0981597900391	815.4822998046875	132.9632720947265	-139.4619445800781	729.5284423828125	-33.48233032226568	-107.4269561767578	858.4489135742188	245.6748352050781	-141.8875122070312	781.7354125976562	-142.3805236816407	-184.4591522216797	354.6021118164062	-67.51914978027349	-375.458740234375	563.44384765625	128.0796356201171	-191.111343383789	333.0048522949219	-156.7246246337891	-404.6835021972656	556.6144409179688	215.0787658691405	1.556608557701123	271.6715698242188	-95.19515228271486	-295.8845520019531	377.3270263671875	152.8616027832031	-255.9574279785156	301.7206420898438	-112.4729614257813	-477.9712524414062	577.1211547851562	171.250030517578	9.732155799865694	1188.948974609375	232.0630950927734	4.456909179687519	1197.587646484375	-150.3602905273438	62.61004638671871	1213.102172851562	289.1042175292968	52.32094192504886	1227.75830078125	-211.7470245361329	268.1136474609375	1043.43701171875	211.5970611572265	250.2021942138672	1028.979370117188	291.0094604492188	245.3141174316407	1064.322143554688	-131.446517944336	218.0010375976563	1038.866821289062	-203.81494140625	313.2215270996094	1026.461547851562	-229.366455078125	353.1064758300781	1018.938720703125	299.8626403808594	
1419	11.81666666666667	143.1392211914062	1549.99462890625	110.2914352416991	131.0374755859375	1549.368530273438	-42.92812347412117	36.38681030273436	1627.474243164062	121.827178955078	15.95228958129883	1643.50537109375	-25.37594985961924	-112.9291687011719	1549.543334960938	41.42913818359364	-73.25747680664062	1392.190551757812	38.61094665527335	-56.54078674316409	1489.130493164062	206.6160125732421	-72.32894897460936	1511.252197265625	-140.3354034423829	-175.5298919677734	1256.590576171875	32.83218383789053	-330.1517639160156	1453.497924804688	34.94004440307604	-533.1423950195312	1268.927978515625	108.3222656249999	-538.1455078125	1265.769653320312	-14.30859851837173	-382.1325073242188	1197.251953125	170.3502655029295	-390.3262023925781	1182.799560546875	-77.63940429687511	-97.55174255371095	825.8934936523438	133.2939300537109	-148.6354522705078	718.9188232421875	-33.33956527709967	-100.9483337402344	868.4826049804688	245.9946899414062	-151.4477233886718	771.5496826171875	-141.5359497070313	-195.3339538574219	339.8753356933594	-68.74045562744145	-371.2726440429688	577.1910400390625	129.4329681396484	-197.9910736083984	322.0343017578125	-156.7996368408204	-400.149658203125	569.4529418945312	216.360610961914	-5.757037639617908	256.6303405761719	-95.30997467041017	-288.0378112792969	393.6212768554688	153.1578369140624	-268.1219482421875	294.8995056152344	-120.9848785400391	-474.1884460449219	589.27099609375	172.9127655029296	9.453763008117647	1188.864013671875	232.6194915771484	4.127515792846698	1197.452026367188	-150.2840118408204	62.28954315185543	1212.999267578125	289.6765747070312	52.01493072509768	1227.780395507812	-211.4351196289063	267.9260559082031	1043.603393554688	211.6836853027343	250.0655212402343	1029.10009765625	291.0984191894531	245.1161651611328	1064.329711914062	-131.4619140625	217.7859954833985	1038.858764648438	-203.7871398925782	313.0517578125	1026.453979492188	-229.375717163086	352.9606018066406	1019.10009765625	299.9100952148438	
1420	11.825	142.9289855957031	1549.753662109375	111.5315475463866	130.8636932373047	1549.148193359375	-41.67599105834969	36.18432617187499	1627.235473632812	123.0364532470702	15.79022598266602	1643.327270507812	-24.18450927734385	-113.2043075561523	1549.359619140625	42.53281784057607	-73.50830841064453	1391.996704101562	39.84967041015616	-57.10626983642581	1489.10205078125	207.7827606201171	-72.43206787109374	1511.16259765625	-139.3156127929688	-175.5089569091797	1256.352783203125	33.94626235961904	-330.3858947753906	1453.1650390625	35.25312042236315	-533.30126953125	1268.685302734375	108.2064285278319	-537.98486328125	1265.027465820312	-14.44220066070571	-382.1979064941406	1197.351318359375	170.577926635742	-390.0174560546875	1181.289916992188	-77.40243530273449	-91.57907867431642	836.2371826171875	133.5900726318359	-158.1214294433594	709.1524047851562	-33.19248580932624	-94.79474639892581	878.4175415039062	246.3986511230468	-160.8748321533203	762.1148071289062	-140.9029083251954	-196.4819030761719	334.3115844726562	-68.12376403808598	-366.3830261230469	589.9422607421875	130.700469970703	-205.7162322998047	312.0613098144531	-156.9677276611329	-394.8616638183594	581.2122192382812	217.5796508789062	-14.36911869049071	242.2496185302734	-95.4350051879883	-276.1310729980469	411.9385070800781	154.0326843261718	-275.906982421875	286.0428161621094	-120.9946594238282	-469.72998046875	600.0177001953125	174.5380096435546	9.222180366516085	1188.904418945312	233.1785430908202	3.877100229263324	1197.3818359375	-150.1361541748048	62.04217910766598	1212.965576171875	290.2016296386718	51.83947753906253	1227.8681640625	-211.092269897461	267.7420349121094	1043.747680664062	211.778823852539	249.9413146972656	1029.222045898438	291.2067260742188	244.9747467041016	1064.338134765625	-131.4245758056641	217.6226196289063	1038.862548828125	-203.7411499023438	312.9309692382812	1026.4677734375	-229.3279571533203	352.8114013671874	1019.288818359375	299.983642578125	
1421	11.83333333333333	142.7251586914062	1549.58251953125	112.7005081176757	130.7182769775391	1548.998779296875	-40.51599502563484	35.96521377563475	1627.083862304688	124.2286453247069	15.64680004119873	1643.202758789062	-23.01171684265146	-113.4853363037109	1549.208129882812	43.52431488037099	-73.70801544189453	1391.895385742188	40.86849594116202	-57.60750961303714	1489.076293945312	208.8878936767577	-72.59510040283202	1511.10009765625	-138.3829803466798	-175.6674957275391	1256.20068359375	35.05989837646474	-330.5792236328125	1452.891967773438	35.64852523803697	-533.4445190429688	1268.520385742188	108.1797103881835	-537.8672485351562	1264.443237304688	-14.52403736114516	-382.2075500488281	1197.547119140625	170.8240814208983	-389.8562927246094	1180.125244140625	-77.09341430664074	-91.10352325439455	846.2879028320312	134.0111083984374	-169.8961334228516	699.8590087890625	-32.15110397338874	-88.92459869384768	888.1697387695312	246.7940673828124	-170.1522979736328	753.54736328125	-140.4973144531251	-204.5145416259766	325.4523620605469	-68.29450225830082	-360.6658325195312	601.025390625	131.7716674804687	-214.3678436279297	303.1810302734375	-157.1872558593751	-388.8508605957031	591.6549072265625	218.7600097656249	-24.13268470764159	228.7946014404297	-95.5996780395508	-267.2322998046875	426.4971618652344	153.4997863769531	-284.6407775878906	278.32861328125	-121.0318603515625	-464.5253601074219	609.1718139648438	175.9601745605468	9.053583145141573	1188.990844726562	233.6669616699218	3.726196289062518	1197.354614257812	-149.8565368652345	61.83913421630856	1212.972900390625	290.7848510742187	51.79399871826175	1227.970947265625	-210.7397003173829	267.6117248535156	1043.870971679688	211.8676147460937	249.888442993164	1029.356201171875	291.3095092773438	244.8661499023438	1064.358154296875	-131.3163604736328	217.5404205322266	1038.95068359375	-203.6558227539063	312.8577575683594	1026.524658203125	-229.2433471679688	353.0416259765624	1019.199768066406	299.5941772460938	
